<svg width="882" height="282" viewBox="0 0 882 282" fill="none" xmlns="http://www.w3.org/2000/svg">
<g clip-path="url(#clip0_0_1)">
<mask id="mask0_0_1" style="mask-type:alpha" maskUnits="userSpaceOnUse" x="0" y="0" width="909" height="282">
<rect width="909" height="282" fill="#D9D9D9"/>
</mask>
<g mask="url(#mask0_0_1)">
<path d="M148.684 133.291C148.684 131.045 149.074 128.75 149.855 126.406C150.734 123.965 152.004 121.768 153.664 119.814C155.324 117.861 157.375 116.25 159.816 114.98C162.355 113.711 165.334 113.076 168.752 113.076C174.416 113.076 178.371 114.199 180.617 116.445C182.863 118.594 183.986 121.328 183.986 124.648C183.986 126.504 183.596 128.555 182.814 130.801C182.131 133.047 181.057 135.146 179.592 137.1C178.127 138.955 176.223 140.518 173.879 141.787C171.535 143.057 168.752 143.691 165.529 143.691C159.475 143.691 155.227 142.764 152.785 140.908C150.344 138.955 148.977 136.416 148.684 133.291ZM132.57 166.25C134.23 163.516 136.135 161.562 138.283 160.391C140.432 159.219 142.629 158.633 144.875 158.633C148.586 158.633 151.76 159.854 154.396 162.295C157.131 164.639 158.498 167.666 158.498 171.377C158.4 172.256 158.254 173.135 158.059 174.014C157.961 174.893 157.668 175.771 157.18 176.65C155.812 179.189 154.689 181.338 153.811 183.096C152.932 184.854 152.102 186.514 151.32 188.076C150.637 189.541 149.953 191.006 149.27 192.471C148.586 193.936 147.756 195.693 146.779 197.744C145.607 200.186 144.289 202.871 142.824 205.801C141.359 208.633 139.943 211.562 138.576 214.59C137.307 217.617 136.184 220.596 135.207 223.525C134.328 226.455 133.889 229.141 133.889 231.582C133.889 234.219 134.523 235.977 135.793 236.855C137.16 237.637 139.064 238.027 141.506 238.027C144.24 238.027 147.072 237.441 150.002 236.27C153.029 235.098 156.057 233.584 159.084 231.729C162.111 229.873 165.09 227.773 168.02 225.43C170.949 222.988 173.684 220.547 176.223 218.105C178.859 215.664 181.252 213.32 183.4 211.074C185.646 208.828 187.502 206.826 188.967 205.068C190.92 203.213 192.873 202.285 194.826 202.285C196.584 202.285 198 203.066 199.074 204.629C200.246 206.191 200.832 208.193 200.832 210.635C200.832 212.881 200.246 215.273 199.074 217.812C198 220.352 196.193 222.744 193.654 224.99C188.674 230.068 183.596 234.951 178.42 239.639C173.244 244.229 167.922 248.33 162.453 251.943C157.082 255.459 151.662 258.291 146.193 260.439C140.725 262.588 135.207 263.662 129.641 263.662C121.73 263.662 115.48 261.66 110.891 257.656C106.398 253.555 104.152 247.207 104.152 238.613C104.152 234.121 104.787 229.727 106.057 225.43C107.326 221.133 108.84 216.982 110.598 212.979C112.355 208.877 114.211 204.971 116.164 201.26C118.117 197.451 119.777 193.838 121.145 190.42C121.633 189.15 122.463 187.197 123.635 184.561C124.904 181.924 126.223 179.238 127.59 176.504C129.152 173.281 130.812 169.863 132.57 166.25Z" fill="black"/>
<path d="M822.715 201.754C820.371 204.098 817.93 206.148 815.391 207.906C812.949 209.664 810.312 210.543 807.48 210.543C805.527 210.543 803.574 210.104 801.621 209.225C799.766 208.248 797.715 206.637 795.469 204.391C792.93 201.852 791.172 199.557 790.195 197.506C789.219 195.455 788.73 193.453 788.73 191.5C788.73 188.668 789.609 186.08 791.367 183.736C793.125 181.295 795.176 178.902 797.52 176.559L833.262 141.402L797.227 105.66C794.98 103.414 792.979 101.07 791.221 98.6289C789.561 96.0898 788.73 93.3555 788.73 90.4258C788.73 88.4727 789.17 86.5684 790.049 84.7129C791.025 82.7598 792.637 80.6602 794.883 78.4141C797.227 76.0703 799.424 74.3613 801.475 73.2871C803.525 72.2129 805.527 71.6758 807.48 71.6758C810.41 71.6758 813.047 72.6035 815.391 74.459C817.832 76.2168 820.176 78.2188 822.422 80.4648L868.418 126.168C870.957 128.707 873.105 131.148 874.863 133.492C876.621 135.738 877.5 138.277 877.5 141.109C877.5 142.672 877.207 144.137 876.621 145.504C876.133 146.871 875.449 148.189 874.57 149.459C873.691 150.729 872.715 151.9 871.641 152.975C870.664 154.049 869.688 155.074 868.711 156.051L822.715 201.754Z" fill="black"/>
<path d="M13.5195 155.051C12.543 154.074 11.5176 153.049 10.4434 151.975C9.4668 150.9 8.53906 149.729 7.66016 148.459C6.78125 147.189 6.04883 145.871 5.46289 144.504C4.97461 143.137 4.73047 141.672 4.73047 140.109C4.73047 137.277 5.60938 134.738 7.36719 132.492C9.125 130.148 11.2734 127.707 13.8125 125.168L59.8086 79.4648C62.0547 77.2188 64.3496 75.2168 66.6934 73.459C69.1348 71.6035 71.8203 70.6758 74.75 70.6758C76.7031 70.6758 78.7051 71.2129 80.7559 72.2871C82.8066 73.3613 85.0039 75.0703 87.3477 77.4141C89.5938 79.6602 91.1562 81.7598 92.0352 83.7129C93.0117 85.5684 93.5 87.4727 93.5 89.4258C93.5 92.3555 92.6211 95.0898 90.8633 97.6289C89.2031 100.07 87.25 102.414 85.0039 104.66L48.9688 140.402L84.7109 175.559C87.0547 177.902 89.1055 180.295 90.8633 182.736C92.6211 185.08 93.5 187.668 93.5 190.5C93.5 192.453 93.0117 194.455 92.0352 196.506C91.0586 198.557 89.3008 200.852 86.7617 203.391C84.5156 205.637 82.416 207.248 80.4629 208.225C78.6074 209.104 76.7031 209.543 74.75 209.543C71.918 209.543 69.2324 208.664 66.6934 206.906C64.252 205.148 61.8594 203.098 59.5156 200.754L13.5195 155.051Z" fill="black"/>
<path d="M705.582 215.16C704.801 216.82 703.922 218.529 702.945 220.287C702.066 221.947 700.943 223.51 699.576 224.975C698.307 226.342 696.793 227.465 695.035 228.344C693.375 229.32 691.422 229.809 689.176 229.809C686.734 229.809 684 229.125 680.973 227.758C676.969 226 674.088 224.047 672.33 221.898C670.572 219.75 669.547 217.504 669.254 215.16C669.254 212.328 669.547 209.887 670.133 207.836C670.816 205.785 671.598 203.637 672.477 201.391L743.961 34.1055C744.645 32.543 745.377 30.9316 746.158 29.2715C746.939 27.6113 747.867 26.1465 748.941 24.877C750.016 23.5098 751.236 22.3867 752.604 21.5078C754.068 20.5312 755.777 19.9453 757.73 19.75C759.781 19.75 761.637 19.8965 763.297 20.1895C765.055 20.4824 766.91 21.0195 768.863 21.8008C772.672 23.4609 775.406 25.3652 777.066 27.5137C778.727 29.5645 779.703 31.7617 779.996 34.1055C779.996 37.0352 779.654 39.623 778.971 41.8691C778.385 44.1152 777.652 46.2148 776.773 48.168L705.582 215.16Z" fill="black"/>
<path d="M274.523 83.0762L252.404 83.2227L252.697 200.557H275.695L304.992 142.695L274.523 83.0762ZM285.363 230H237.609C227.844 230 222.961 225.166 222.961 215.498V68.4277C222.961 58.6621 227.844 53.7793 237.609 53.7793L295.91 53.6328V53.9258H309.24C313.928 53.9258 317.785 56.7578 320.812 62.4219L354.65 127.168C357.189 132.148 358.459 137.08 358.459 141.963C358.459 147.041 357.141 152.07 354.504 157.051L321.691 221.943C318.664 227.412 314.758 230.146 309.973 230.146H287.268C286.682 230.146 286.047 230.098 285.363 230Z" fill="black"/>
<path d="M496.779 126.436C506.544 126.436 511.427 131.465 511.427 141.523C511.427 151.289 506.544 156.172 496.779 156.172H409.328V201.143L496.925 201.436C506.886 201.24 511.818 205.928 511.72 215.498C511.916 225.166 507.13 230 497.365 230H394.679C384.914 230 380.031 225.117 380.031 215.352L380.177 141.377C380.08 131.611 384.914 126.68 394.679 126.582L394.826 68.4277C394.826 58.6621 399.709 53.7793 409.474 53.7793L497.218 53.6328C506.984 53.6328 511.867 58.7598 511.867 69.0137C511.867 78.291 506.984 82.9297 497.218 82.9297H453.419V126.289L496.779 126.436Z" fill="black"/>
<path d="M681.129 54.5117C685.914 54.5117 688.307 56.9531 688.307 61.8359C688.307 63.4961 688.014 64.8633 687.428 65.9375L687.574 66.084L657.545 191.621L652.564 212.568L651.1 218.574C649.244 226.191 644.898 230 638.062 230C637.281 230 636.451 229.951 635.572 229.854V230H587.525V229.854C586.646 229.951 585.816 230 585.035 230C578.199 230 573.854 226.191 571.998 218.574L570.533 212.568L534.498 66.2305C534.205 65.0586 534.059 63.4473 534.059 61.3965C534.059 56.5137 536.5 54.0723 541.383 54.0723H579.762C580.641 53.9746 581.471 53.9258 582.252 53.9258C589.088 53.9258 593.434 57.7344 595.289 65.3516L626.197 191.621H626.344L655.934 65.6445C657.789 58.0273 662.135 54.2188 668.971 54.2188L681.129 54.5117Z" fill="black"/>
</g>
</g>
<defs>
<clipPath id="clip0_0_1">
<rect width="882" height="282" fill="white"/>
</clipPath>
</defs>
</svg>
